<svg xmlns="http://www.w3.org/2000/svg" width="128" height="128" viewBox="0 0 128 128">
  <title>PHONE CALL</title>
  <g>
    <path d="M119.945,101.625,97.353,79.032a5.968,5.968,0,0,0-8.811.408L74.882,95.894A83.456,83.456,0,0,1,49.727,78.273,83.456,83.456,0,0,1,32.106,53.118L48.56,39.458a5.968,5.968,0,0,0,.408-8.811L26.375,8.055a5.967,5.967,0,0,0-8.811.408l-6.972,8.4A17.756,17.756,0,0,0,6.54,26.632c-1.037,11.754.258,39.092,28,66.831s55.078,29.033,66.831,28a17.75,17.75,0,0,0,9.77-4.052l8.4-6.973A5.967,5.967,0,0,0,119.945,101.625Z" fill="#7fb3fa"/>
    <path d="M111.752,61.86A1.749,1.749,0,0,1,110,60.11,42.161,42.161,0,0,0,67.89,18a1.75,1.75,0,1,1,0-3.5A45.664,45.664,0,0,1,113.5,60.11,1.749,1.749,0,0,1,111.752,61.86Z" fill="#7fb3fa"/>
    <path d="M101.442,61.86a1.75,1.75,0,0,1-1.75-1.75,31.838,31.838,0,0,0-31.8-31.8,1.75,1.75,0,0,1,0-3.5,35.343,35.343,0,0,1,35.3,35.3A1.749,1.749,0,0,1,101.442,61.86Z" fill="#7fb3fa"/>
    <path d="M91.132,61.86a1.749,1.749,0,0,1-1.75-1.75A21.517,21.517,0,0,0,67.89,38.618a1.75,1.75,0,0,1,0-3.5A25.021,25.021,0,0,1,92.882,60.11,1.749,1.749,0,0,1,91.132,61.86Z" fill="#7fb3fa"/>
  </g>
</svg>
