<svg xmlns="http://www.w3.org/2000/svg" width="128" height="128" viewBox="0 0 128 128">
  <title>PHONE CALL</title>
  <g>
    <path d="M96.131,123.433c-13.342,0-38.082-3.982-62.831-28.733C4.67,66.071,3.829,37.453,4.8,26.478A19.431,19.431,0,0,1,9.245,15.743l6.973-8.4a7.716,7.716,0,0,1,11.394-.528L50.205,29.41a7.717,7.717,0,0,1-.528,11.4l-15.424,12.8A82.706,82.706,0,0,0,50.965,77.035,82.726,82.726,0,0,0,74.391,93.747L87.2,78.322a7.718,7.718,0,0,1,11.4-.527l22.593,22.593a7.716,7.716,0,0,1-.528,11.394l-8.4,6.973a19.438,19.438,0,0,1-10.735,4.448C100.035,123.334,98.222,123.433,96.131,123.433ZM22.164,8.057c-.067,0-.135,0-.2,0a4.171,4.171,0,0,0-3.05,1.52h0l-6.973,8.4a15.945,15.945,0,0,0-3.655,8.807c-.924,10.486-.1,37.853,27.491,65.44s54.958,28.415,65.441,27.491a15.936,15.936,0,0,0,8.8-3.656l8.4-6.972a4.218,4.218,0,0,0,.289-6.227L96.115,80.27a4.216,4.216,0,0,0-6.226.288L76.229,97.012a1.752,1.752,0,0,1-2.056.481A85.615,85.615,0,0,1,48.49,79.51,85.615,85.615,0,0,1,30.507,53.827a1.75,1.75,0,0,1,.481-2.056l16.453-13.66a4.215,4.215,0,0,0,.289-6.226L25.138,9.292A4.166,4.166,0,0,0,22.164,8.057Zm-4.6.406h0Z"/>
    <path d="M111.752,61.86A1.749,1.749,0,0,1,110,60.11,42.161,42.161,0,0,0,67.89,18a1.75,1.75,0,1,1,0-3.5A45.664,45.664,0,0,1,113.5,60.11,1.749,1.749,0,0,1,111.752,61.86Z"/>
    <path d="M101.442,61.86a1.75,1.75,0,0,1-1.75-1.75,31.838,31.838,0,0,0-31.8-31.8,1.75,1.75,0,0,1,0-3.5,35.343,35.343,0,0,1,35.3,35.3A1.749,1.749,0,0,1,101.442,61.86Z"/>
    <path d="M91.132,61.86a1.749,1.749,0,0,1-1.75-1.75A21.517,21.517,0,0,0,67.89,38.618a1.75,1.75,0,0,1,0-3.5A25.021,25.021,0,0,1,92.882,60.11,1.749,1.749,0,0,1,91.132,61.86Z"/>
  </g>
</svg>
